<svg width="23" height="26" viewBox="0 0 23 26" fill="none" xmlns="http://www.w3.org/2000/svg">
    <path d="M10.7276 25.499C12.5798 25.499 14.1292 24.1272 14.485 22.3115H6.97017C7.32616 24.1272 8.87556 25.499 10.7276 25.499Z" fill="white"/>
    <path d="M17.8988 12.748C17.8947 12.748 17.8905 12.749 17.8864 12.749C13.9399 12.749 10.7276 9.41263 10.7276 5.31152C10.7276 4.18411 10.9772 3.11837 11.4118 2.16002C11.1868 2.13784 10.9587 2.12402 10.7276 2.12402C6.77392 2.12402 3.56874 5.45374 3.56874 9.56146V12.5237C3.56874 14.6264 2.68205 16.6112 1.12647 17.9775C0.607938 18.4376 0.377793 19.1707 0.563931 19.8858C0.780781 20.7177 1.57234 21.249 2.40285 21.249H19.0473C19.9186 21.249 20.7399 20.6625 20.9167 19.7753C21.0538 19.0889 20.8186 18.4035 20.3062 17.9563C18.8192 16.6612 17.9591 14.7581 17.8988 12.748Z" fill="white"/>
    <path d="M22.9994 5.31256C22.9994 8.24657 20.7101 10.6249 17.8858 10.6249C15.0617 10.6249 12.7725 8.24657 12.7725 5.31256C12.7725 2.37856 15.0617 0 17.8858 0C20.7101 0 22.9994 2.37856 22.9994 5.31256Z" fill="#DC1443"/>
</svg>
